<mxfile host="app.diagrams.net" modified="2021-04-10T00:09:49.459Z" agent="5.0 (Windows NT 10.0; Win64; x64) AppleWebKit/537.36 (KHTML, like Gecko) Chrome/89.0.4389.114 Safari/537.36" etag="_n7YtTFGlzdjyCbNUCfO" version="14.5.10" type="github">
  <diagram id="kfMCp2One74_whS2mkZ4" name="Page-1">
    <mxGraphModel dx="1662" dy="762" grid="1" gridSize="10" guides="1" tooltips="1" connect="1" arrows="1" fold="1" page="1" pageScale="1" pageWidth="850" pageHeight="1100" math="0" shadow="0">
      <root>
        <mxCell id="0" />
        <mxCell id="1" parent="0" />
        <mxCell id="4DfbOeitUn6oWv-JtotX-2" value="Elevator Event Loop" style="ellipse;whiteSpace=wrap;html=1;" vertex="1" parent="1">
          <mxGeometry x="410" y="220" width="340" height="80" as="geometry" />
        </mxCell>
        <mxCell id="4DfbOeitUn6oWv-JtotX-8" value="Button Pushed" style="text;html=1;align=center;verticalAlign=middle;resizable=0;points=[];autosize=1;strokeColor=none;" vertex="1" parent="1">
          <mxGeometry x="310" y="100" width="90" height="20" as="geometry" />
        </mxCell>
        <mxCell id="4DfbOeitUn6oWv-JtotX-10" value="" style="group" vertex="1" connectable="0" parent="1">
          <mxGeometry x="270" y="140" width="155" height="120" as="geometry" />
        </mxCell>
        <mxCell id="4DfbOeitUn6oWv-JtotX-1" value="" style="endArrow=classic;html=1;" edge="1" parent="4DfbOeitUn6oWv-JtotX-10">
          <mxGeometry width="50" height="50" relative="1" as="geometry">
            <mxPoint x="154" as="sourcePoint" />
            <mxPoint x="154" y="90" as="targetPoint" />
          </mxGeometry>
        </mxCell>
        <mxCell id="4DfbOeitUn6oWv-JtotX-4" value="" style="endArrow=none;html=1;" edge="1" parent="4DfbOeitUn6oWv-JtotX-10">
          <mxGeometry width="50" height="50" relative="1" as="geometry">
            <mxPoint as="sourcePoint" />
            <mxPoint x="155" as="targetPoint" />
          </mxGeometry>
        </mxCell>
        <mxCell id="4DfbOeitUn6oWv-JtotX-5" value="" style="endArrow=none;html=1;" edge="1" parent="4DfbOeitUn6oWv-JtotX-10">
          <mxGeometry width="50" height="50" relative="1" as="geometry">
            <mxPoint y="120" as="sourcePoint" />
            <mxPoint as="targetPoint" />
          </mxGeometry>
        </mxCell>
        <mxCell id="4DfbOeitUn6oWv-JtotX-6" value="" style="endArrow=none;html=1;entryX=0;entryY=0.5;entryDx=0;entryDy=0;" edge="1" parent="4DfbOeitUn6oWv-JtotX-10" target="4DfbOeitUn6oWv-JtotX-2">
          <mxGeometry width="50" height="50" relative="1" as="geometry">
            <mxPoint y="120" as="sourcePoint" />
            <mxPoint x="50" y="70" as="targetPoint" />
          </mxGeometry>
        </mxCell>
        <mxCell id="4DfbOeitUn6oWv-JtotX-16" value="" style="endArrow=none;html=1;" edge="1" parent="1">
          <mxGeometry width="50" height="50" relative="1" as="geometry">
            <mxPoint x="750" y="260" as="sourcePoint" />
            <mxPoint x="850" y="260" as="targetPoint" />
          </mxGeometry>
        </mxCell>
        <mxCell id="4DfbOeitUn6oWv-JtotX-17" value="" style="endArrow=none;html=1;" edge="1" parent="1">
          <mxGeometry width="50" height="50" relative="1" as="geometry">
            <mxPoint x="850" y="260" as="sourcePoint" />
            <mxPoint x="850" y="130" as="targetPoint" />
          </mxGeometry>
        </mxCell>
        <mxCell id="4DfbOeitUn6oWv-JtotX-18" value="" style="endArrow=none;html=1;" edge="1" parent="1">
          <mxGeometry width="50" height="50" relative="1" as="geometry">
            <mxPoint x="700" y="130" as="sourcePoint" />
            <mxPoint x="850" y="130" as="targetPoint" />
          </mxGeometry>
        </mxCell>
        <mxCell id="4DfbOeitUn6oWv-JtotX-19" value="" style="endArrow=classic;html=1;entryX=1;entryY=0;entryDx=0;entryDy=0;" edge="1" parent="1" target="4DfbOeitUn6oWv-JtotX-2">
          <mxGeometry width="50" height="50" relative="1" as="geometry">
            <mxPoint x="700" y="130" as="sourcePoint" />
            <mxPoint x="750" y="80" as="targetPoint" />
          </mxGeometry>
        </mxCell>
        <mxCell id="4DfbOeitUn6oWv-JtotX-20" value="No request" style="text;html=1;align=center;verticalAlign=middle;resizable=0;points=[];autosize=1;strokeColor=none;" vertex="1" parent="1">
          <mxGeometry x="755" y="90" width="70" height="20" as="geometry" />
        </mxCell>
        <mxCell id="4DfbOeitUn6oWv-JtotX-22" value="" style="endArrow=classic;html=1;" edge="1" parent="1">
          <mxGeometry width="50" height="50" relative="1" as="geometry">
            <mxPoint x="425" y="290" as="sourcePoint" />
            <mxPoint x="425" y="380" as="targetPoint" />
          </mxGeometry>
        </mxCell>
        <mxCell id="4DfbOeitUn6oWv-JtotX-23" value="Elevator Subcontroller&lt;br&gt;send command" style="text;html=1;align=center;verticalAlign=middle;resizable=0;points=[];autosize=1;strokeColor=none;" vertex="1" parent="1">
          <mxGeometry x="360" y="380" width="130" height="30" as="geometry" />
        </mxCell>
        <mxCell id="4DfbOeitUn6oWv-JtotX-24" value="Elevator left the floor" style="rounded=1;whiteSpace=wrap;html=1;" vertex="1" parent="1">
          <mxGeometry x="365" y="420" width="120" height="60" as="geometry" />
        </mxCell>
        <mxCell id="4DfbOeitUn6oWv-JtotX-25" value="Move one floor in Direction d" style="rounded=1;whiteSpace=wrap;html=1;" vertex="1" parent="1">
          <mxGeometry x="365" y="490" width="120" height="60" as="geometry" />
        </mxCell>
        <mxCell id="4DfbOeitUn6oWv-JtotX-26" value="" style="endArrow=classic;html=1;" edge="1" parent="1">
          <mxGeometry width="50" height="50" relative="1" as="geometry">
            <mxPoint x="424" y="570" as="sourcePoint" />
            <mxPoint x="420" y="810" as="targetPoint" />
          </mxGeometry>
        </mxCell>
        <mxCell id="4DfbOeitUn6oWv-JtotX-27" value="" style="endArrow=classic;html=1;" edge="1" parent="1">
          <mxGeometry width="50" height="50" relative="1" as="geometry">
            <mxPoint x="425" y="810" as="sourcePoint" />
            <mxPoint x="580" y="810" as="targetPoint" />
          </mxGeometry>
        </mxCell>
        <mxCell id="4DfbOeitUn6oWv-JtotX-28" value="" style="endArrow=classic;html=1;" edge="1" parent="1">
          <mxGeometry width="50" height="50" relative="1" as="geometry">
            <mxPoint x="600" y="780" as="sourcePoint" />
            <mxPoint x="600" y="320" as="targetPoint" />
          </mxGeometry>
        </mxCell>
        <mxCell id="4DfbOeitUn6oWv-JtotX-29" value="" style="endArrow=classic;html=1;" edge="1" parent="1">
          <mxGeometry width="50" height="50" relative="1" as="geometry">
            <mxPoint x="800" y="810" as="sourcePoint" />
            <mxPoint x="620" y="810" as="targetPoint" />
          </mxGeometry>
        </mxCell>
        <mxCell id="4DfbOeitUn6oWv-JtotX-30" value="" style="endArrow=classic;html=1;" edge="1" parent="1">
          <mxGeometry width="50" height="50" relative="1" as="geometry">
            <mxPoint x="830" y="740" as="sourcePoint" />
            <mxPoint x="830" y="810" as="targetPoint" />
          </mxGeometry>
        </mxCell>
        <mxCell id="4DfbOeitUn6oWv-JtotX-31" value="Floor button is turned off" style="rounded=0;whiteSpace=wrap;html=1;" vertex="1" parent="1">
          <mxGeometry x="770" y="670" width="120" height="60" as="geometry" />
        </mxCell>
        <mxCell id="4DfbOeitUn6oWv-JtotX-32" value="Turning off Floor button" style="rounded=1;whiteSpace=wrap;html=1;" vertex="1" parent="1">
          <mxGeometry x="770" y="600" width="120" height="60" as="geometry" />
        </mxCell>
        <mxCell id="4DfbOeitUn6oWv-JtotX-33" value="" style="endArrow=classic;html=1;" edge="1" parent="1" target="4DfbOeitUn6oWv-JtotX-32">
          <mxGeometry width="50" height="50" relative="1" as="geometry">
            <mxPoint x="833" y="540" as="sourcePoint" />
            <mxPoint x="860" y="525" as="targetPoint" />
          </mxGeometry>
        </mxCell>
        <mxCell id="4DfbOeitUn6oWv-JtotX-34" value="Floor buttons are checked" style="text;html=1;align=center;verticalAlign=middle;resizable=0;points=[];autosize=1;strokeColor=none;" vertex="1" parent="1">
          <mxGeometry x="770" y="520" width="150" height="20" as="geometry" />
        </mxCell>
        <mxCell id="4DfbOeitUn6oWv-JtotX-35" value="Elevator moving up or down" style="rounded=0;whiteSpace=wrap;html=1;" vertex="1" parent="1">
          <mxGeometry x="785" y="440" width="120" height="60" as="geometry" />
        </mxCell>
        <mxCell id="4DfbOeitUn6oWv-JtotX-36" value="Elevator left the floor" style="rounded=0;whiteSpace=wrap;html=1;" vertex="1" parent="1">
          <mxGeometry x="785" y="370" width="120" height="60" as="geometry" />
        </mxCell>
        <mxCell id="4DfbOeitUn6oWv-JtotX-37" value="" style="endArrow=classic;html=1;" edge="1" parent="1">
          <mxGeometry width="50" height="50" relative="1" as="geometry">
            <mxPoint x="844.5" y="280" as="sourcePoint" />
            <mxPoint x="844.5" y="350" as="targetPoint" />
          </mxGeometry>
        </mxCell>
        <mxCell id="4DfbOeitUn6oWv-JtotX-38" value="Floor Subcontroller send command" style="text;html=1;align=center;verticalAlign=middle;resizable=0;points=[];autosize=1;strokeColor=none;" vertex="1" parent="1">
          <mxGeometry x="860" y="300" width="200" height="20" as="geometry" />
        </mxCell>
        <mxCell id="4DfbOeitUn6oWv-JtotX-39" value="" style="endArrow=none;html=1;exitX=0.918;exitY=0.813;exitDx=0;exitDy=0;exitPerimeter=0;" edge="1" parent="1" source="4DfbOeitUn6oWv-JtotX-2">
          <mxGeometry width="50" height="50" relative="1" as="geometry">
            <mxPoint x="790" y="330" as="sourcePoint" />
            <mxPoint x="850" y="285" as="targetPoint" />
          </mxGeometry>
        </mxCell>
        <mxCell id="4DfbOeitUn6oWv-JtotX-40" value="" style="endArrow=classic;html=1;" edge="1" parent="1" target="4DfbOeitUn6oWv-JtotX-2">
          <mxGeometry width="50" height="50" relative="1" as="geometry">
            <mxPoint x="580" y="160" as="sourcePoint" />
            <mxPoint x="605" y="130" as="targetPoint" />
          </mxGeometry>
        </mxCell>
        <mxCell id="4DfbOeitUn6oWv-JtotX-41" value="&lt;b style=&quot;font-weight: normal&quot; id=&quot;docs-internal-guid-8cf2928d-7fff-e898-1aec-2f3435aff9c3&quot;&gt;&lt;img src=&quot;https://docs.google.com/drawings/u/0/d/sOrjvGM82EWWDZudzAEIu7A/image?w=20&amp;amp;h=19&amp;amp;rev=1&amp;amp;ac=1&amp;amp;parent=1VZbqrwdERY5-aOCBtkq4fzu_dReQdS_f6WgvNymyD0A&quot; width=&quot;20&quot; height=&quot;19&quot; style=&quot;border: none&quot;&gt;&lt;/b&gt;" style="text;whiteSpace=wrap;html=1;" vertex="1" parent="1">
          <mxGeometry x="570" y="120" width="50" height="40" as="geometry" />
        </mxCell>
      </root>
    </mxGraphModel>
  </diagram>
</mxfile>
